<svg id="Layer_1" data-name="Layer 1" xmlns="http://www.w3.org/2000/svg" viewBox="0 0 95.73 86.61"><defs><style>.cls-1{fill:#583635;}.cls-2{fill:#fbb858;}.cls-3{fill:#4f2d2c;}</style></defs><path class="cls-1" d="M131.67,80.14,118,107.82a3.93,3.93,0,0,1-3.51,2.17h-1.74L102.37,91.66l0,0a1.7,1.7,0,0,0-.19-.35l0,0h0a1.48,1.48,0,0,0-.32-.34,1.79,1.79,0,0,0-.28-.2l-.17-.08-.14-.06h0a.88.88,0,0,0-.27-.06,1.1,1.1,0,0,0-.31,0H92.15a3.69,3.69,0,0,0-3.32,2.07l-23,46.72-9-15.55a13.8,13.8,0,0,1,0-13.81l17-29.49a13.82,13.82,0,0,1,12-6.9h34A13.77,13.77,0,0,1,131.67,80.14Z" transform="translate(-55 -73.52)"/><path class="cls-2" d="M148.87,123.72l-17,29.49a13.83,13.83,0,0,1-12,6.91h-12L87.74,122.55a3.72,3.72,0,0,1,2.54-1h14.93a3.45,3.45,0,0,1,3.12,4.93l-5.55,11.65a2.31,2.31,0,0,0,2.09,3.3h7.66a4,4,0,0,0,3.59-2.25l22.61-46.83,10.14,17.57A13.8,13.8,0,0,1,148.87,123.72Z" transform="translate(-55 -73.52)"/><path class="cls-3" d="M107.92,160.12H85.84a13.83,13.83,0,0,1-12-6.91L73,151.76l13.9-28.12a3.48,3.48,0,0,1,.82-1.09Z" transform="translate(-55 -73.52)"/><path class="cls-2" d="M112.75,110H100.09a3.26,3.26,0,0,1-3-4.54l5.27-12.33a2,2,0,0,0,.15-.73,1.5,1.5,0,0,0,0-.37,1.36,1.36,0,0,0-.1-.36Z" transform="translate(-55 -73.52)"/></svg>